<svg xmlns="http://www.w3.org/2000/svg" xmlns:xlink="http://www.w3.org/1999/xlink" width="500" zoomAndPan="magnify" viewBox="0 0 375 374.999991" height="500" preserveAspectRatio="xMidYMid meet" version="1.0"><defs><clipPath id="b7983a7dcb"><path d="M 36.410156 141 L 253 141 L 253 357.757812 L 36.410156 357.757812 Z M 36.410156 141 " clip-rule="nonzero"/></clipPath><clipPath id="cb9fb0547d"><path d="M 122 17.257812 L 265 17.257812 L 265 159 L 122 159 Z M 122 17.257812 " clip-rule="nonzero"/></clipPath><clipPath id="99bffd3036"><path d="M 225 113 L 338.660156 113 L 338.660156 228 L 225 228 Z M 225 113 " clip-rule="nonzero"/></clipPath><clipPath id="976844f5a7"><path d="M 59.414062 166 L 221.414062 166 L 221.414062 331.644531 L 59.414062 331.644531 Z M 59.414062 166 " clip-rule="nonzero"/></clipPath><clipPath id="ceb012d05f"><path d="M 166.785156 59.050781 L 221.535156 59.050781 L 221.535156 113.800781 L 166.785156 113.800781 Z M 166.785156 59.050781 " clip-rule="nonzero"/></clipPath></defs><g clip-path="url(#b7983a7dcb)"><path fill="#000000" d="M 217.800781 205.46875 L 229.773438 182.523438 L 211.363281 164.117188 L 188.351562 176.125 C 181.195312 171.832031 173.363281 168.558594 165.050781 166.488281 L 157.265625 141.71875 L 131.234375 141.71875 L 123.445312 166.488281 C 115.136719 168.558594 107.304688 171.835938 100.152344 176.125 L 77.132812 164.117188 L 58.726562 182.523438 L 70.699219 205.464844 C 66.359375 212.648438 63.042969 220.515625 60.953125 228.871094 L 36.316406 236.609375 L 36.316406 262.636719 L 60.851562 270.347656 C 62.925781 278.78125 66.238281 286.726562 70.597656 293.976562 L 58.726562 316.722656 L 77.132812 335.128906 L 99.820312 323.296875 C 107.097656 327.703125 115.082031 331.054688 123.5625 333.152344 L 131.226562 357.535156 L 157.257812 357.535156 L 164.925781 333.152344 C 173.40625 331.054688 181.386719 327.703125 188.667969 323.296875 L 211.351562 335.128906 L 229.765625 316.722656 L 217.894531 293.976562 C 222.25 286.726562 225.566406 278.78125 227.632812 270.347656 L 252.167969 262.636719 L 252.167969 236.609375 L 227.539062 228.871094 C 225.457031 220.519531 222.144531 212.652344 217.800781 205.46875 Z M 144.253906 306.746094 C 112.800781 306.746094 87.308594 281.253906 87.308594 249.804688 C 87.308594 218.359375 112.800781 192.867188 144.253906 192.867188 C 175.703125 192.867188 201.199219 218.359375 201.199219 249.804688 C 201.199219 281.253906 175.703125 306.746094 144.253906 306.746094 Z M 144.253906 306.746094 " fill-opacity="1" fill-rule="nonzero"/></g><g clip-path="url(#cb9fb0547d)"><path fill="#000000" d="M 139.941406 105.011719 L 128.839844 117.652344 L 137.695312 132.238281 L 153.992188 128.230469 C 157.9375 132.167969 162.503906 135.546875 167.578125 138.199219 L 168.667969 154.921875 L 185.246094 158.972656 L 193.921875 144.636719 C 199.648438 144.621094 205.253906 143.726562 210.578125 142.054688 L 223.183594 153.121094 L 237.777344 144.265625 L 233.753906 127.929688 C 237.65625 123.992188 241 119.449219 243.632812 114.398438 L 260.460938 113.304688 L 264.511719 96.730469 L 250.035156 87.96875 C 249.996094 82.320312 249.113281 76.792969 247.460938 71.546875 L 258.660156 58.796875 L 249.800781 44.207031 L 233.273438 48.273438 C 229.386719 44.429688 224.910156 41.121094 219.9375 38.511719 L 218.835938 21.523438 L 202.253906 17.472656 L 193.4375 32.039062 C 187.824219 32.066406 182.328125 32.933594 177.105469 34.550781 L 164.316406 23.324219 L 149.722656 32.183594 L 153.78125 48.65625 C 149.898438 52.554688 146.566406 57.046875 143.933594 62.046875 L 127.039062 63.140625 L 122.992188 79.722656 L 137.417969 88.449219 C 137.421875 94.144531 138.292969 99.71875 139.941406 105.011719 Z M 157.453125 79.484375 C 162.347656 59.457031 182.550781 47.1875 202.582031 52.082031 C 222.609375 56.976562 234.878906 77.175781 229.984375 97.203125 C 225.09375 117.226562 204.890625 129.496094 184.859375 124.605469 C 164.828125 119.710938 152.554688 99.511719 157.453125 79.484375 Z M 157.453125 79.484375 " fill-opacity="1" fill-rule="nonzero"/></g><g clip-path="url(#99bffd3036)"><path fill="#000000" d="M 326.195312 165.902344 C 325.734375 161.574219 324.648438 157.285156 322.902344 153.175781 L 330.78125 142.152344 L 322.609375 131.308594 L 309.84375 135.84375 C 306.375 133.027344 302.546875 130.792969 298.515625 129.160156 L 296.296875 115.804688 L 282.851562 113.910156 L 277.050781 126.101562 C 272.691406 126.546875 268.375 127.632812 264.234375 129.386719 L 253.277344 121.550781 L 242.429688 129.71875 L 246.917969 142.363281 C 244.054688 145.867188 241.785156 149.742188 240.128906 153.835938 L 226.921875 156.027344 L 225.027344 169.472656 L 237.078125 175.210938 C 237.53125 179.628906 238.636719 184.003906 240.425781 188.195312 L 232.667969 199.039062 L 240.839844 209.886719 L 253.410156 205.425781 C 256.941406 208.304688 260.847656 210.578125 264.96875 212.230469 L 267.152344 225.394531 L 280.601562 227.289062 L 286.359375 215.203125 C 290.742188 214.742188 295.09375 213.628906 299.257812 211.847656 L 310.167969 219.652344 L 321.015625 211.480469 L 316.511719 198.792969 C 319.339844 195.296875 321.578125 191.449219 323.207031 187.382812 L 336.527344 185.175781 L 338.417969 171.730469 Z M 299.523438 194.378906 C 286.414062 204.246094 267.792969 201.625 257.921875 188.523438 C 248.046875 175.417969 250.675781 156.800781 263.78125 146.929688 C 276.886719 137.0625 295.511719 139.683594 305.378906 152.789062 C 315.246094 165.886719 312.625 184.507812 299.523438 194.378906 Z M 299.523438 194.378906 " fill-opacity="1" fill-rule="nonzero"/></g><path fill="#000000" d="M 140.398438 204.976562 C 116.277344 204.976562 96.652344 224.613281 96.652344 248.753906 C 96.652344 272.894531 116.277344 292.535156 140.398438 292.535156 C 164.519531 292.535156 184.144531 272.894531 184.144531 248.753906 C 184.144531 224.613281 164.519531 204.976562 140.398438 204.976562 Z M 163.277344 237.601562 L 138.972656 261.921875 C 137.074219 263.824219 134 263.824219 132.101562 261.921875 L 117.519531 247.332031 C 115.621094 245.429688 115.621094 242.351562 117.519531 240.449219 C 119.417969 238.550781 122.492188 238.550781 124.390625 240.449219 L 135.535156 251.605469 L 156.402344 230.722656 C 158.300781 228.824219 161.378906 228.824219 163.277344 230.722656 C 165.175781 232.621094 165.175781 235.703125 163.277344 237.601562 Z M 163.277344 237.601562 " fill-opacity="1" fill-rule="nonzero"/><g clip-path="url(#976844f5a7)"><path fill="#000000" d="M 216.953125 248.753906 L 220.953125 232.605469 C 221.324219 231.105469 220.960938 229.523438 219.980469 228.335938 L 209.386719 215.507812 L 205.957031 199.222656 C 205.640625 197.714844 204.632812 196.449219 203.234375 195.804688 L 188.128906 188.851562 L 178.003906 175.652344 C 177.085938 174.453125 175.660156 173.75 174.148438 173.75 C 173.328125 173.75 178.472656 173.675781 157.4375 174.046875 L 142.578125 166.574219 C 141.207031 165.886719 139.589844 165.886719 138.214844 166.574219 L 123.355469 174.042969 L 106.730469 173.75 C 105.105469 173.734375 103.6875 174.484375 102.789062 175.652344 L 92.664062 188.851562 L 77.5625 195.804688 C 76.164062 196.449219 75.152344 197.714844 74.835938 199.222656 L 71.410156 215.507812 L 60.816406 228.335938 C 59.832031 229.523438 59.472656 231.109375 59.84375 232.605469 L 63.84375 248.753906 L 59.84375 264.90625 C 59.472656 266.402344 59.832031 267.988281 60.8125 269.175781 L 71.410156 282.003906 L 74.835938 298.289062 C 75.152344 299.792969 76.164062 301.0625 77.5625 301.703125 L 92.664062 308.660156 L 102.789062 321.855469 C 103.710938 323.058594 105.136719 323.757812 106.644531 323.757812 C 107.46875 323.757812 102.320312 323.835938 123.355469 323.464844 L 138.214844 330.933594 C 139.597656 331.628906 141.214844 331.621094 142.578125 330.933594 L 157.4375 323.464844 L 174.0625 323.757812 C 175.691406 323.777344 177.109375 323.027344 178.003906 321.855469 L 188.128906 308.660156 L 203.234375 301.703125 C 204.628906 301.0625 205.640625 299.792969 205.957031 298.289062 L 209.386719 282.003906 L 219.980469 269.175781 C 220.960938 267.988281 221.320312 266.402344 220.953125 264.90625 Z M 140.398438 302.265625 C 110.914062 302.265625 86.929688 278.261719 86.929688 248.753906 C 86.929688 219.25 110.914062 195.246094 140.398438 195.246094 C 169.878906 195.246094 193.863281 219.25 193.863281 248.753906 C 193.863281 278.261719 169.878906 302.265625 140.398438 302.265625 Z M 140.398438 302.265625 " fill-opacity="1" fill-rule="nonzero"/></g><g clip-path="url(#ceb012d05f)"><path fill="#000000" d="M 194.160156 59.050781 C 209.21875 59.050781 221.535156 71.367188 221.535156 86.425781 C 221.535156 101.480469 209.21875 113.800781 194.160156 113.800781 C 179.105469 113.800781 166.785156 101.480469 166.785156 86.425781 C 166.785156 71.367188 179.105469 59.050781 194.160156 59.050781 Z M 194.160156 62.082031 C 180.773438 62.082031 169.816406 73.035156 169.816406 86.425781 C 169.816406 99.8125 180.773438 110.769531 194.160156 110.769531 C 207.550781 110.769531 218.503906 99.8125 218.503906 86.425781 C 218.503906 73.035156 207.550781 62.082031 194.160156 62.082031 " fill-opacity="1" fill-rule="evenodd"/></g><path fill="#000000" d="M 188.628906 90.621094 L 204.398438 74.851562 C 205.753906 73.496094 207.957031 73.496094 209.316406 74.851562 C 210.671875 76.210938 210.671875 78.414062 209.316406 79.769531 L 191.105469 97.980469 C 191.101562 97.984375 191.09375 97.992188 191.085938 97.996094 C 189.730469 99.355469 187.527344 99.355469 186.171875 97.996094 L 179.007812 90.832031 C 177.648438 89.472656 177.648438 87.273438 179.007812 85.914062 C 180.363281 84.558594 182.566406 84.558594 183.921875 85.914062 L 188.628906 90.621094 " fill-opacity="1" fill-rule="evenodd"/></svg>